<svg xmlns="http://www.w3.org/2000/svg" xmlns:xlink="http://www.w3.org/1999/xlink">
	
	<symbol viewBox="0 0 24 24" id="home">
		<title>Home</title>
		<path d="M12 9.185l7 6.514v6.301h-3v-5h-8v5h-3v-6.301l7-6.514zm0-2.732l-9 8.375v9.172h7v-5h4v5h7v-9.172l-9-8.375zm12 5.695l-12-11.148-12 11.133 1.361 1.465 10.639-9.868 10.639 9.883 1.361-1.465z"/>
	</symbol>

	<symbol viewBox="0 0 24 24" id="search">
		<title>Search</title>
		<path d="M23.809 21.646l-6.205-6.205c1.167-1.605 1.857-3.579 1.857-5.711 0-5.365-4.365-9.73-9.731-9.73-5.365 0-9.73 4.365-9.73 9.73 0 5.366 4.365 9.73 9.73 9.73 2.034 0 3.923-.627 5.487-1.698l6.238 6.238 2.354-2.354zm-20.955-11.916c0-3.792 3.085-6.877 6.877-6.877s6.877 3.085 6.877 6.877-3.085 6.877-6.877 6.877c-3.793 0-6.877-3.085-6.877-6.877z"/>
	</symbol>

	<symbol viewBox="0 0 24 24" id="hamburger">
		<title>Hamburger</title>
		<path d="M24 6h-24v-4h24v4zm0 4h-24v4h24v-4zm0 8h-24v4h24v-4z"/>
	</symbol>

	<symbol viewBox="0 0 24 24" id="location">
		<title>Location</title>
		<path d="M18.5 2c1.309 0 2.5 1.16 2.5 2.434 0 1.358-1.044 3.303-2.5 5.723-1.456-2.42-2.5-4.365-2.5-5.723 0-1.274 1.191-2.434 2.5-2.434zm0-2c-2.361 0-4.5 1.985-4.5 4.434 0 2.45 1.951 5.373 4.5 9.566 2.549-4.193 4.5-7.116 4.5-9.566 0-2.449-2.139-4.434-4.5-4.434zm0 6c-.828 0-1.5-.672-1.5-1.5s.672-1.5 1.5-1.5 1.5.672 1.5 1.5-.672 1.5-1.5 1.5zm-7.26 1.237c-.004-.009-.289-.017-.24-.078l.137-.085c.012-.077.072-.162-.008-.304l.047-.125-.1.029s.141-.606.33-.332l-.08.093c.123.122.156.426.195.623.115.06.295.071.088.175.107-.018-.561.286-.648.161-.065-.076.289-.127.279-.157zm-.715-.159c-.078.078.002.128.082.094.113-.05.268-.048.283-.202l.074-.091c.031-.049-.062-.126-.102-.135-.059-.012-.1.064-.137.095l-.066.017-.062.08.008.044-.08.098zm7 9.167l-.734-1.206-.723-1.186c-.73-1.194-1.389-2.276-1.961-3.296l-.07.067c-.377.156-.943-.509-1.34-.531.193.03.018-.49.018-.524-.152-.189-1.123.021-1.377.055-.479.063-.979.057-1.346.355-.258.21-.262.551-.525.716-.17.106-.355.072-.502.209-.258.245-.553.607-.697.929-.061.135.078.458.043.632-.336 1.063.086 2.538 1.375 2.701.312.039.639.209.955.114.252-.076.475-.248.746-.268.377-.025.219.529.736.379.252-.074.365.172.365.359-.084.391-.268.609.088.883.242.188.443.456.486.78.027.182.197.494-.014.602-.15.075-.26.507-.258.649.031.165.365.481.467.621.145.2.039.436.158.663.121.232.236.41.322.645.111.324.959-.007 1.156-.006.674.004 1.014-.944 1.488-1.235.266-.165.191-.616.51-.848.295-.215.607-.344.635-.741.021-.344-.258-1.062-.104-1.353l.103-.165zm-7.302-7.76c.041.172-.119.645-.154.795-.031.138.443.226.416.295.004-.008.641-.22.705-.275l.143-.323c.121-.081.248-.146.385-.196l.164-.285c.055-.021.709-.123.756-.101.164.075.469.389.582.531l.041.032c-.326-.67-.59-1.314-.795-1.942l-.084.036c-.221 0-.527.251-.662.405-.096.104-.67.337-.732.33.33.035.314.276.287.482-.068.476-1.095.035-1.052.216zm10.904 5.049c-.277 4.807-4.252 8.623-9.129 8.623-2.604 0-4.951-1.086-6.619-2.83-.197-.208-.346-.7-.02-.9l.332-.085c.258-.22-.242-1.111-.045-1.254.617-.441.324-.982-.055-1.429-.16-.19-1.043-1.1-1.143-.937.074-.249-.16-.85-.301-1.087-.24-.398-.553-.643-.68-1.081-.047-.174-.047-.703-.151-.826-.041-.05-.359-.185-.348-.257.305-1.82 1.148-3.458 2.365-4.751l.819-.33c.516-.773.545-.173 1.008-.375.154 0 .332-.634.496-.734.289-.185.068-.185.016-.27-.113-.184 2.41-1.103 2.453-.938.033.14-1.25.809-1.109.788-.325.043-.387.627-.327.625.162-.005 1.182-.774 1.656-.61.467.161 1.301-.37 1.627-.64l.042-.039c.029-.761.195-1.494.48-2.172l-.494-.025c-6.074 0-11 4.925-11 11s4.926 11 11 11 11-4.925 11-11c0-.764-.078-1.509-.227-2.229-.49.864-1.043 1.779-1.646 2.763z"/>
	</symbol>

	<symbol viewBox="0 0 24 24" id="hot">
		<title>Hot</title>
		<path fill-rule="evenodd" clip-rule="evenodd" d="M7.467 0c1.102.018 5.555 2.549 6.386 8.558.905-.889 1.409-3.664 1.147-4.843 3.952 2.969 6 6.781 6 11.034 0 5.094-3.43 9.251-8.963 9.251-5.728 0-9.037-3.753-9.037-8.276 0-6.26 5.052-7.62 4.467-15.724zm3.262 19.743c-.749.848-.368 1.945.763 2.045 1.035.093 1.759-.812 2.032-1.792.273-.978.09-2.02-.369-2.893-.998 1.515-1.52 1.64-2.426 2.64zm4.42 1.608c2.49-1.146 3.852-3.683 3.852-6.58 0-2.358-.94-4.977-2.5-7.04-.743 2.867-2.924 3.978-4.501 4.269.05-3.219-.318-6.153-2.602-8.438-.296 4.732-4.321 7.63-4.398 12.114-.029 1.511.514 3.203 1.73 4.415.491.489 1.054.871 1.664 1.16-.121-.608-.062-1.254.195-1.848.911-2.106 3.333-2.321 4.202-5.754.952.749 3.275 3.503 2.778 6.358-.082.469-.224.923-.42 1.344z"/>
	</symbol>

	<symbol viewBox="0 0 24 24" id="more">
		<title>More</title>
		<path d="M12 2c5.514 0 10 4.486 10 10s-4.486 10-10 10-10-4.486-10-10 4.486-10 10-10zm0-2c-6.627 0-12 5.373-12 12s5.373 12 12 12 12-5.373 12-12-5.373-12-12-12zm6 13h-5v5h-2v-5h-5v-2h5v-5h2v5h5v2z"/>
	</symbol>

	<symbol viewBox="0 0 24 24" id="less">
		<title>Less</title>
		<path d="M12 2c5.514 0 10 4.486 10 10s-4.486 10-10 10-10-4.486-10-10 4.486-10 10-10zm0-2c-6.627 0-12 5.373-12 12s5.373 12 12 12 12-5.373 12-12-5.373-12-12-12zm6 13h-12v-2h12v2z"/>
	</symbol>

	<symbol viewBox="0 0 24 24" id="heart">
		<title>Heart</title>
		<path d="M6.28 3c3.236.001 4.973 3.491 5.72 5.031.75-1.547 2.469-5.021 5.726-5.021 2.058 0 4.274 1.309 4.274 4.182 0 3.442-4.744 7.851-10 13-5.258-5.151-10-9.559-10-13 0-2.676 1.965-4.193 4.28-4.192zm.001-2c-3.183 0-6.281 2.187-6.281 6.192 0 4.661 5.57 9.427 12 15.808 6.43-6.381 12-11.147 12-15.808 0-4.011-3.097-6.182-6.274-6.182-2.204 0-4.446 1.042-5.726 3.238-1.285-2.206-3.522-3.248-5.719-3.248z"/>
	</symbol>

	<symbol viewBox="0 0 24 24" id="heart-full">
		<title>Heart Full</title>
		<path d="M12 4.248c-3.148-5.402-12-3.825-12 2.944 0 4.661 5.571 9.427 12 15.808 6.43-6.381 12-11.147 12-15.808 0-6.792-8.875-8.306-12-2.944z"/>
	</symbol>

	<symbol viewBox="0 0 24 24" id="articles">
		<title>Articles</title>
		<path d="M13 6c3.469 0 2 5 2 5s5-1.594 5 2v9h-12v-16h5zm.827-2h-7.827v20h16v-11.842c0-2.392-5.011-8.158-8.173-8.158zm.173-2l-3-2h-9v22h2v-20h10z"/>
	</symbol>

	<symbol viewBox="0 0 24 24" id="facebook">
		<title>Facebook</title>
		<path d="M9 8h-3v4h3v12h5v-12h3.642l.358-4h-4v-1.667c0-.955.192-1.333 1.115-1.333h2.885v-5h-3.808c-3.596 0-5.192 1.583-5.192 4.615v3.385z"/>
	</symbol>

	<symbol viewBox="0 0 24 24" id="instagram">
		<title>Instagram</title>
		<path d="M12 2.163c3.204 0 3.584.012 4.85.07 3.252.148 4.771 1.691 4.919 4.919.058 1.265.069 1.645.069 4.849 0 3.205-.012 3.584-.069 4.849-.149 3.225-1.664 4.771-4.919 4.919-1.266.058-1.644.07-4.85.07-3.204 0-3.584-.012-4.849-.07-3.26-.149-4.771-1.699-4.919-4.92-.058-1.265-.07-1.644-.07-4.849 0-3.204.013-3.583.07-4.849.149-3.227 1.664-4.771 4.919-4.919 1.266-.057 1.645-.069 4.849-.069zm0-2.163c-3.259 0-3.667.014-4.947.072-4.358.2-6.78 2.618-6.98 6.98-.059 1.281-.073 1.689-.073 4.948 0 3.259.014 3.668.072 4.948.2 4.358 2.618 6.78 6.98 6.98 1.281.058 1.689.072 4.948.072 3.259 0 3.668-.014 4.948-.072 4.354-.2 6.782-2.618 6.979-6.98.059-1.28.073-1.689.073-4.948 0-3.259-.014-3.667-.072-4.947-.196-4.354-2.617-6.78-6.979-6.98-1.281-.059-1.69-.073-4.949-.073zm0 5.838c-3.403 0-6.162 2.759-6.162 6.162s2.759 6.163 6.162 6.163 6.162-2.759 6.162-6.163c0-3.403-2.759-6.162-6.162-6.162zm0 10.162c-2.209 0-4-1.79-4-4 0-2.209 1.791-4 4-4s4 1.791 4 4c0 2.21-1.791 4-4 4zm6.406-11.845c-.796 0-1.441.645-1.441 1.44s.645 1.44 1.441 1.44c.795 0 1.439-.645 1.439-1.44s-.644-1.44-1.439-1.44z"/>
	</symbol>

	<symbol viewBox="0 0 24 24" id="pinterest">
		<title>Pinterest</title>
		<path d="M12 0c-6.627 0-12 5.372-12 12 0 5.084 3.163 9.426 7.627 11.174-.105-.949-.2-2.405.042-3.441.218-.937 1.407-5.965 1.407-5.965s-.359-.719-.359-1.782c0-1.668.967-2.914 2.171-2.914 1.023 0 1.518.769 1.518 1.69 0 1.029-.655 2.568-.994 3.995-.283 1.194.599 2.169 1.777 2.169 2.133 0 3.772-2.249 3.772-5.495 0-2.873-2.064-4.882-5.012-4.882-3.414 0-5.418 2.561-5.418 5.207 0 1.031.397 2.138.893 2.738.098.119.112.224.083.345l-.333 1.36c-.053.22-.174.267-.402.161-1.499-.698-2.436-2.889-2.436-4.649 0-3.785 2.75-7.262 7.929-7.262 4.163 0 7.398 2.967 7.398 6.931 0 4.136-2.607 7.464-6.227 7.464-1.216 0-2.359-.631-2.75-1.378l-.748 2.853c-.271 1.043-1.002 2.35-1.492 3.146 1.124.347 2.317.535 3.554.535 6.627 0 12-5.373 12-12 0-6.628-5.373-12-12-12z" fill-rule="evenodd" clip-rule="evenodd"/>
	</symbol>

	<symbol viewBox="0 0 24 24" id="exit">
		<title>Exit</title>
		<path d="M23.954 21.03l-9.184-9.095 9.092-9.174-2.832-2.807-9.09 9.179-9.176-9.088-2.81 2.81 9.186 9.105-9.095 9.184 2.81 2.81 9.112-9.192 9.18 9.1z"/>
	</symbol>
	
	<!--Browse list action-->
	
	<symbol viewBox="0 0 512 512" id="hiking">
		<title>Hiking</title>
		<path style="fill:#DCB991;" d="M256,246.006L222.515,86.953c-1.002-4.759-5.967-7.545-10.518-5.83
			c-11.61,4.378-32.122,14.242-44.274,32.468l17.655,97.103L256,246.006z"/>
		<path style="fill:#F09846;" d="M498.386,340.129c-2.211-17.688-17.209-31.006-35.034-30.922
			c-30.395,0.143-87.977-2.81-136.73-19.062L194.207,184.214l-44.138-70.621l-68.576,22.859c-7.201,2.4-14.742,3.624-22.333,3.624
			H35.31c-14.626,0-26.483,11.857-26.483,26.483v211.862l406.069,35.31l88.276-35.31L498.386,340.129z"/>
		<path style="fill:#AA6455;" d="M167.724,246.006V141.84l-17.655-28.248l-68.576,22.859c-7.201,2.4-14.742,3.624-22.333,3.624H35.31
			c-14.626,0-26.483,11.857-26.483,26.483v79.448H167.724z"/>
		<path style="fill:#9B5A50;" d="M133.19,119.219l8.776,43.876c1.042,5.207-0.292,10.549-3.658,14.655
			c-3.367,4.107-8.343,6.462-13.654,6.462h-62.86c-21.099,0-40.014,9.348-52.966,24.066v37.727h158.897V141.839l-17.655-28.248
			L133.19,119.219z"/>
		<path style="fill:#DC8C46;" d="M158.897,369.592c44.138-52.966,112.735-51.535,138.443-46.784c7.2,1.331,14.425-2.02,18.193-8.299
			l15.946-26.577c2.273-3.789,1.395-8.674-2.055-11.435L203.034,175.385l-11.232-44.929c-3.548-14.189-17.926-22.816-32.115-19.27
			l-9.619,2.406l9.208,46.04c4.37,21.849-12.342,42.236-34.625,42.236H61.793c-29.252,0-52.966,23.713-52.966,52.966l0,0v105.931
			L158.897,369.592z"/>
		<path style="fill:#EBC9A0;" d="M370.759,387.247c-129.736,0-218.327-33.897-361.803-35.267C4.052,351.933,0,355.935,0,360.84v61.719
			c0,4.875,3.953,8.828,8.828,8.828h141.241c4.875,0,8.828-3.953,8.828-8.828v-13.702c69.736,10.112,133.277,22.529,211.862,22.529
			c70.319,0,118.233-11.203,134.816-15.761c3.819-1.049,6.425-4.535,6.425-8.497V381.25c0-5.758-5.366-9.993-10.944-8.565
			C481.272,377.747,435.517,387.247,370.759,387.247z"/>
		<g>
			<path style="fill:#AA6455;" d="M252.81,256.058c-2.259,0-4.518-0.862-6.241-2.586c-3.448-3.448-3.448-9.035,0-12.483l17.655-17.655
				c3.448-3.448,9.035-3.448,12.483,0s3.448,9.035,0,12.483l-17.655,17.655C257.327,255.195,255.069,256.058,252.81,256.058z"/>
			<path style="fill:#AA6455;" d="M299.405,293.821c-2.259,0-4.518-0.862-6.241-2.586c-3.448-3.448-3.448-9.035,0-12.483
				l17.655-17.655c3.448-3.448,9.035-3.448,12.483,0c3.448,3.448,3.448,9.035,0,12.483l-17.655,17.655
				C303.923,292.959,301.664,293.821,299.405,293.821z"/>
			<path style="fill:#AA6455;" d="M276.104,274.942c-2.259,0-4.518-0.862-6.241-2.586c-3.448-3.448-3.448-9.035,0-12.483
				l17.655-17.655c3.448-3.448,9.035-3.448,12.483,0s3.448,9.035,0,12.483l-17.655,17.655
				C280.621,274.08,278.362,274.942,276.104,274.942z"/>
			<path style="fill:#AA6455;" d="M229.517,237.178c-2.259,0-4.518-0.862-6.241-2.586c-3.448-3.448-3.448-9.035,0-12.483
				l17.655-17.655c3.448-3.448,9.035-3.448,12.483,0s3.448,9.035,0,12.483l-17.655,17.655
				C234.035,236.317,231.776,237.178,229.517,237.178z"/>
		</g>
		<path style="fill:#DCB991;" d="M8.956,396.118C4.052,396.07,0,400.073,0,404.978v17.581c0,4.875,3.953,8.828,8.828,8.828h141.241
			c4.875,0,8.828-3.953,8.828-8.828v-13.742C113.515,402.247,65.503,396.658,8.956,396.118z"/>
	</symbol>
	
	<symbol viewBox="0 0 460 460" id="relax">
		<title>Relax</title>
		<path id="XMLID_5_" style="fill:#EAD07D;" d="M230,430C102.975,430,0,403.137,0,370s102.975-60,230-60s230,26.863,230,60
		S357.025,430,230,430z"/>
		<path id="XMLID_4_" style="fill:#D2BB71;" d="M460,370H76.583L80,349.179l49.429-33.151C159.81,312.168,193.933,310,230,310
			C357.026,310,460,336.863,460,370z"/>
		<path id="XMLID_24_" style="fill:#8A7352;" d="M339.908,195.865L82.448,368.533c-4.587,3.076-10.799,1.852-13.875-2.735
			l-5.57-8.305c-3.076-4.587-1.852-10.799,2.735-13.875l257.46-172.669c4.587-3.076,10.799-1.852,13.875,2.735l5.57,8.305
			C345.719,186.576,344.494,192.788,339.908,195.865z"/>
		<path id="XMLID_1518_" style="fill:#FFA757;" d="M395.856,369.055L184.198,53.459C257.587,4.24,364.462,34.988,422.91,122.138
			S469.245,319.835,395.856,369.055z"/>
		<path id="XMLID_1517_" style="fill:#D97948;" d="M290.027,211.257l132.882-89.119c58.448,87.149,46.336,197.698-27.053,246.917
			L290.027,211.257z"/>
		<path id="XMLID_222_" style="fill:#F49445;" d="M334.586,277.698l-89.119-132.882c73.389-49.219,152.833-59.373,177.442-22.678
			S407.975,228.479,334.586,277.698z"/>
	</symbol>
</svg>